<?xml version="1.0" encoding="UTF-8"?> <svg xmlns="http://www.w3.org/2000/svg" xmlns:xlink="http://www.w3.org/1999/xlink" version="1.1" id="Layer_2_1_" x="0px" y="0px" viewBox="0 0 1500 289.9" style="enable-background:new 0 0 1500 289.9;" xml:space="preserve"> <path style="fill:#FA7800;" d="M267.3,167.5c-79.9,0-144.9-65-144.9-144.9c0-12.5,10.1-22.6,22.6-22.6s22.6,10.1,22.6,22.6 c0,55,44.8,99.8,99.8,99.8c12.5,0,22.6,10.1,22.6,22.6S279.8,167.5,267.3,167.5z"></path> <path style="fill:#FFAF44;" d="M144.9,289.9c-12.5,0-22.6-10.1-22.6-22.6c0-55-44.8-99.8-99.8-99.8C10.1,167.5,0,157.4,0,145 s10.1-22.6,22.6-22.6c79.9,0,145,65,145,144.9C167.5,279.8,157.4,289.9,144.9,289.9L144.9,289.9z"></path> <path style="fill:#E91889;" d="M144.9,289.9c-12.5,0-22.6-10.1-22.6-22.6c0-79.9,65-144.9,144.9-144.9c12.5,0,22.6,10.1,22.6,22.6 s-10.1,22.6-22.6,22.6c-55,0-99.8,44.8-99.8,99.8C167.5,279.8,157.4,289.9,144.9,289.9L144.9,289.9z"></path> <path style="fill:#6020D6;" d="M22.6,167.5C10.1,167.5,0,157.4,0,144.9s10.1-22.6,22.6-22.6c55,0,99.8-44.8,99.8-99.8 c0-12.5,10.1-22.6,22.6-22.6s22.6,10.1,22.6,22.6C167.5,102.5,102.5,167.5,22.6,167.5L22.6,167.5z"></path> <path style="fill:#7F40BF;" d="M167.5,22.6c0-12.5-10.1-22.6-22.6-22.6s-22.6,10.1-22.6,22.6c0,28.5,8.3,55.1,22.6,77.6 C159.2,77.7,167.5,51.1,167.5,22.6z"></path> <path style="fill:#BB67C8;" d="M22.6,122.4C10.1,122.4,0,132.5,0,144.9s10.1,22.6,22.6,22.6c28.5,0,55.1-8.3,77.6-22.6 C77.7,130.7,51.1,122.4,22.6,122.4z"></path> <path style="fill:#FF0062;" d="M267.3,122.4c-28.5,0-55.1,8.3-77.6,22.6c22.4,14.3,49,22.6,77.6,22.6c12.5,0,22.6-10.1,22.6-22.6 S279.8,122.4,267.3,122.4z"></path> <path style="fill:#FF337E;" d="M122.4,267.3c0,12.5,10.1,22.6,22.6,22.6s22.6-10.1,22.6-22.6c0-28.5-8.3-55.1-22.6-77.6 C130.7,212.2,122.4,238.8,122.4,267.3z"></path> <g> <path d="M639.2,49.4h-42.3v43h-20.7v34.2h20.7v84.8c0,35.7,17.8,53.1,54.5,53.1h26.6v-35.2h-19.4 c-7,0-11.9-1.4-14.9-4.2c-3-2.8-4.5-7.3-4.5-13.4v-85.1h38.9V92.4h-38.9V49.4z M753.1,49.5h-42.3v43h-17.6v34.2h17.6v84.8 c0,35.7,17.8,53.1,54.5,53.1h26.6v-35.2h-19.4c-7,0-11.9-1.4-14.9-4.2c-3-2.8-4.5-7.3-4.5-13.4v-85.1h38.9V92.5H753L753.1,49.5 L753.1,49.5z M426,200.2c0,9-2.2,16.2-6.5,21.3c-4.4,5.2-10.7,7.9-18.9,7.9s-14.9-2.8-19.4-8.2c-4.3-5.2-6.6-12.5-6.9-21.6h-42 c0.2,21,6.6,37.5,19,49.2c12.6,11.9,29.4,18,50,18s36.8-5.9,48.9-17.5c12.1-11.6,18.2-28.1,18.2-49.1V47.3H426L426,200.2L426,200.2 z M502.2,264.6h42V92.5h-42L502.2,264.6L502.2,264.6z M523.5,23.3c-14.3,0-26,11.7-26,26.1s11.7,26.1,26,26.1 c14.3,0,26-11.7,26-26.1S537.9,23.3,523.5,23.3z M1324.2,264.5h42V92.4h-42V264.5L1324.2,264.5z M1345.5,23.2 c-14.3,0-26,11.7-26,26.1s11.7,26.1,26,26.1s26-11.7,26-26.1S1359.8,23.2,1345.5,23.2z M1500,126.6V92.4h-38.9v-43h-42.3v43h-20.7 v34.2h20.7v84.8c0,35.7,17.8,53.1,54.5,53.1h26.6v-35.2h-19.4c-7,0-11.9-1.4-14.9-4.2c-3-2.8-4.5-7.3-4.5-13.4v-85.1L1500,126.6 L1500,126.6z M936.1,100.2c-12.9-7-27.6-10.6-43.9-10.6s-32,3.7-45,10.9c-12.9,7.2-23.2,17.7-30.3,31c-7.2,13.4-10.9,29.2-10.9,47 s3.7,33.3,11,46.7c7.3,13.4,17.6,23.9,30.7,31.2c13.1,7.3,28,11,44.5,11c20.4,0,37.8-5.4,51.8-16c13.6-10.4,23.1-23.7,28.1-39.6 h-45.5c-7.1,14-19,21-35.4,21c-11.5,0-21.3-3.7-29.2-10.9c-7.9-7.2-12.4-17.4-13.5-30.1l-0.1-1h127.1c0.7-4.8,1.1-10.2,1.1-16 c0-16.7-3.6-31.7-10.7-44.6C959.1,117.3,949,107.2,936.1,100.2L936.1,100.2z M848.9,163.1l0.2-1.1c1.7-11.9,6.4-21.3,13.9-28.1 c7.6-6.7,17-10.1,28-10.1c11.7,0,21.7,3.5,29.8,10.4c8.1,7,12.3,16.3,12.5,27.9l0,1H848.9z M1261.1,100.4 c-11.8-7.2-25.2-10.8-39.8-10.8c-12.5,0-23.8,2.6-33.6,7.7c-9.7,5.1-17.5,11.9-23,20.1l-1.7,2.6V34h-42v230.5h42v-26.8l1.7,2.4 c5.7,8,13.5,14.6,23,19.7c9.5,5,20.8,7.6,33.6,7.6c14.6,0,28-3.8,39.8-11.2c11.8-7.4,21.3-18,28.2-31.5 c6.9-13.5,10.4-29.3,10.4-46.8s-3.5-33.2-10.4-46.5C1282.4,118,1273,107.7,1261.1,100.4L1261.1,100.4z M1250.2,205.9 c-4.3,7.9-10.2,14-17.3,18.3s-14.9,6.4-23.2,6.4s-15.8-2.1-22.9-6.2c-7.1-4.1-12.9-10.2-17.3-18.1c-4.3-7.8-6.5-17.2-6.5-27.8 s2.2-19.9,6.5-27.8c4.3-7.9,10.2-13.9,17.3-18.1c7.1-4.1,14.8-6.2,22.9-6.2s16.1,2.1,23.2,6.1c7.1,4.1,12.9,10,17.3,17.8 c4.3,7.8,6.5,17.1,6.5,27.6S1254.6,198.1,1250.2,205.9L1250.2,205.9z M1045,111.9l-1.7,2.4V92.5h-42v172.1h42v-85.7 c0-16.3,3.6-28,10.8-34.6c7.2-6.6,17.8-10,31.8-10h10.7V90C1065,90.2,1050.7,103.8,1045,111.9z"></path> </g> </svg> 